<svg width="80" height="80" viewBox="0 0 80 80" fill="none" xmlns="http://www.w3.org/2000/svg">
<path d="M30 29.9997L39.9997 39.9993M39.9997 39.9993L49.9997 49.9993M39.9997 39.9993L30 49.9993M39.9997 39.9993L49.9997 29.9997M13.3334 56.0003V24.0003C13.3334 20.2666 13.3334 18.3984 14.06 16.9723C14.6991 15.7179 15.7183 14.6988 16.9727 14.0596C18.3988 13.333 20.267 13.333 24.0007 13.333H56.0007C59.7344 13.333 61.6004 13.333 63.0264 14.0596C64.2807 14.6988 65.3017 15.7179 65.9407 16.9723C66.6674 18.3984 66.6674 20.2652 66.6674 23.9989V55.999C66.6674 59.7327 66.6674 61.5997 65.9407 63.0257C65.3017 64.28 64.2807 65.3013 63.0264 65.9403C61.6017 66.6663 59.7384 66.6663 56.012 66.6663H23.9897C20.2633 66.6663 18.3974 66.6663 16.9727 65.9403C15.7183 65.3013 14.6991 64.2803 14.06 63.026C13.3334 61.6 13.3334 59.734 13.3334 56.0003Z" stroke="#755AC6" stroke-width="7" stroke-linecap="round" stroke-linejoin="round"/>
</svg>
