<svg width="105" height="105" viewBox="0 0 105 105" fill="none" xmlns="http://www.w3.org/2000/svg">
<path d="M0 14C0 6.26801 6.26801 0 14 0H91C98.732 0 105 6.26801 105 14V91C105 98.732 98.732 105 91 105H14C6.26801 105 0 98.732 0 91V14Z" fill="url(#paint0_linear_702_14)"/>
<circle cx="20.3" cy="20.125" r="8.75" fill="white"/>
<path d="M63.1686 92.2198C62.1186 92.9898 60.6486 93.6373 58.7586 94.1623C56.9036 94.6523 54.4886 94.8973 51.5136 94.8973C48.5736 94.8973 45.7736 94.6523 43.1136 94.1623C40.4536 93.6723 38.5461 93.1298 37.3911 92.5348C36.2361 91.9398 35.6586 91.3623 35.6586 90.8023C35.6586 88.8423 35.9386 86.8123 36.4986 84.7123C37.0586 82.5773 37.7236 81.5098 38.4936 81.5098C38.6336 81.5098 40.0861 81.9823 42.8511 82.9273C45.6161 83.8723 47.6986 84.3448 49.0986 84.3448C50.4986 84.3448 51.4086 84.2048 51.8286 83.9248C52.2486 83.6098 52.4586 83.1723 52.4586 82.6123C52.4586 82.0523 52.0736 81.5623 51.3036 81.1423C50.5336 80.6873 49.5711 80.3023 48.4161 79.9873C47.2611 79.6373 46.0011 79.1473 44.6361 78.5173C43.3061 77.8873 42.0636 77.1873 40.9086 76.4173C39.7536 75.6473 38.7911 74.5623 38.0211 73.1623C37.2511 71.7273 36.8661 70.0998 36.8661 68.2798C36.8661 60.5098 41.5036 56.6248 50.7786 56.6248C54.2436 56.6248 57.2361 56.8523 59.7561 57.3073C62.2761 57.7273 64.0436 58.2173 65.0586 58.7773C66.1086 59.3023 66.6336 59.8273 66.6336 60.3523C66.6336 62.1723 66.1961 64.1323 65.3211 66.2323C64.4811 68.3323 63.6586 69.3823 62.8536 69.3823C62.7136 69.3823 62.2586 69.2248 61.4886 68.9098C59.1786 67.8948 57.2536 67.3873 55.7136 67.3873C54.2086 67.3873 53.1761 67.5273 52.6161 67.8073C52.0911 68.0873 51.8286 68.5248 51.8286 69.1198C51.8286 69.6798 52.2136 70.1523 52.9836 70.5373C53.7536 70.8873 54.6986 71.2198 55.8186 71.5348C56.9736 71.8148 58.2161 72.2698 59.5461 72.8998C60.9111 73.4948 62.1711 74.2123 63.3261 75.0523C64.4811 75.8573 65.4436 77.0123 66.2136 78.5173C66.9836 80.0223 67.3686 81.7723 67.3686 83.7673C67.3686 85.8673 66.8261 87.7748 65.7411 89.4898C65.0761 90.5398 64.2186 91.4498 63.1686 92.2198ZM75.2067 94.4248C73.4567 94.4248 72.2842 94.3373 71.6892 94.1623C71.0942 93.9523 70.7967 93.6198 70.7967 93.1648V60.5098C70.7967 59.7398 71.8117 58.9873 73.8417 58.2523C75.8717 57.4823 78.1467 57.0973 80.6667 57.0973C82.9067 57.0973 84.3767 57.5698 85.0767 58.5148C85.3217 58.8648 85.4442 59.2148 85.4442 59.5648V82.8223C89.7142 82.5423 92.9342 82.4023 95.1042 82.4023C95.8392 82.4023 96.2067 83.5748 96.2067 85.9198C96.2067 88.2298 96.0492 90.2248 95.7342 91.9048C95.4192 93.5848 94.9992 94.4248 94.4742 94.4248H75.2067Z" fill="white"/>
<defs>
<linearGradient id="paint0_linear_702_14" x1="52.5" y1="0" x2="52.5" y2="105" gradientUnits="userSpaceOnUse">
<stop stop-color="#6991DD"/>
<stop offset="0.515" stop-color="#7070CF"/>
<stop offset="1" stop-color="#7655C4"/>
</linearGradient>
</defs>
</svg>
