<svg width="300" height="301" viewBox="0 0 300 301" fill="none" xmlns="http://www.w3.org/2000/svg">
<path d="M0 40.5C0 18.4086 17.9086 0.5 40 0.5H260C282.091 0.5 300 18.4086 300 40.5V260.5C300 282.591 282.091 300.5 260 300.5H40C17.9086 300.5 0 282.591 0 260.5V40.5Z" fill="url(#paint0_linear_702_13)"/>
<circle cx="58" cy="58" r="25" fill="#D9D9D9"/>
<path d="M180.482 264.7C177.482 266.9 173.282 268.75 167.882 270.25C162.582 271.65 155.682 272.35 147.182 272.35C138.782 272.35 130.782 271.65 123.182 270.25C115.582 268.85 110.132 267.3 106.832 265.6C103.532 263.9 101.882 262.25 101.882 260.65C101.882 255.05 102.682 249.25 104.282 243.25C105.882 237.15 107.782 234.1 109.982 234.1C110.382 234.1 114.532 235.45 122.432 238.15C130.332 240.85 136.282 242.2 140.282 242.2C144.282 242.2 146.882 241.8 148.082 241C149.282 240.1 149.882 238.85 149.882 237.25C149.882 235.65 148.782 234.25 146.582 233.05C144.382 231.75 141.632 230.65 138.332 229.75C135.032 228.75 131.432 227.35 127.532 225.55C123.732 223.75 120.182 221.75 116.882 219.55C113.582 217.35 110.832 214.25 108.632 210.25C106.432 206.15 105.332 201.5 105.332 196.3C105.332 174.1 118.582 163 145.082 163C154.982 163 163.532 163.65 170.732 164.95C177.932 166.15 182.982 167.55 185.882 169.15C188.882 170.65 190.382 172.15 190.382 173.65C190.382 178.85 189.132 184.45 186.632 190.45C184.232 196.45 181.882 199.45 179.582 199.45C179.182 199.45 177.882 199 175.682 198.1C169.082 195.2 163.582 193.75 159.182 193.75C154.882 193.75 151.932 194.15 150.332 194.95C148.832 195.75 148.082 197 148.082 198.7C148.082 200.3 149.182 201.65 151.382 202.75C153.582 203.75 156.282 204.7 159.482 205.6C162.782 206.4 166.332 207.7 170.132 209.5C174.032 211.2 177.632 213.25 180.932 215.65C184.232 217.95 186.982 221.25 189.182 225.55C191.382 229.85 192.482 234.85 192.482 240.55C192.482 246.55 190.932 252 187.832 256.9C185.932 259.9 183.482 262.5 180.482 264.7ZM214.876 271C209.876 271 206.526 270.75 204.826 270.25C203.126 269.65 202.276 268.7 202.276 267.4V174.1C202.276 171.9 205.176 169.75 210.976 167.65C216.776 165.45 223.276 164.35 230.476 164.35C236.876 164.35 241.076 165.7 243.076 168.4C243.776 169.4 244.126 170.4 244.126 171.4V237.85C256.326 237.05 265.526 236.65 271.726 236.65C273.826 236.65 274.876 240 274.876 246.7C274.876 253.3 274.426 259 273.526 263.8C272.626 268.6 271.426 271 269.926 271H214.876Z" fill="white"/>
<defs>
<linearGradient id="paint0_linear_702_13" x1="150" y1="0.5" x2="150" y2="300.5" gradientUnits="userSpaceOnUse">
<stop stop-color="#6991DD"/>
<stop offset="0.515" stop-color="#7070CF"/>
<stop offset="1" stop-color="#7655C4"/>
</linearGradient>
</defs>
</svg>
