<svg width="100" height="100" viewBox="0 0 100 100" fill="none" xmlns="http://www.w3.org/2000/svg">
<rect width="100" height="100" rx="10" fill="white"/>
<g clip-path="url(#clip0_776_85)">
<path d="M18.8252 26.3313C18.6742 21.9969 22.0513 18 26.6159 18H73.3898C77.9545 18 81.3316 21.9969 81.1806 26.3313C81.0356 30.4948 81.2239 35.8883 82.5812 40.2859C83.943 44.6972 86.2392 47.4855 90 47.8438V51.9062C86.2392 52.2645 83.943 55.0528 82.5812 59.4641C81.2239 63.8617 81.0356 69.2552 81.1806 73.4189C81.3316 77.7531 77.9545 81.75 73.3898 81.75H26.6159C22.0513 81.75 18.6742 77.7531 18.8253 73.4189C18.9702 69.2552 18.7819 63.8617 17.4244 59.4641C16.0628 55.0528 13.7609 52.2645 10 51.9062V47.8438C13.7608 47.4855 16.0628 44.6972 17.4244 40.2859C18.7819 35.8883 18.9702 30.4948 18.8252 26.3313Z" fill="url(#paint0_linear_776_85)"/>
<g filter="url(#filter0_d_776_85)">
<path d="M51.7348 66.8213C59.125 66.8213 63.5783 63.2029 63.5783 57.2346C63.5783 52.7232 60.4008 49.4571 55.6827 48.94V48.7521C59.1491 48.1882 61.8692 44.9691 61.8692 41.3741C61.8692 36.2518 57.8252 32.915 51.6627 32.915H37.797V66.8213H51.7348ZM43.1892 37.215H50.3628C54.2625 37.215 56.477 38.9538 56.477 42.1024C56.477 45.4625 53.9014 47.3422 49.2314 47.3422H43.1892V37.215ZM43.1892 62.5214V51.3604H50.3145C55.4178 51.3604 58.0658 53.24 58.0658 56.9057C58.0658 60.5711 55.4902 62.5214 50.6275 62.5214H43.1892Z" fill="url(#paint1_linear_776_85)"/>
<path d="M51.7348 66.8213C59.125 66.8213 63.5783 63.2029 63.5783 57.2346C63.5783 52.7232 60.4008 49.4571 55.6827 48.94V48.7521C59.1491 48.1882 61.8692 44.9691 61.8692 41.3741C61.8692 36.2518 57.8252 32.915 51.6627 32.915H37.797V66.8213H51.7348ZM43.1892 37.215H50.3628C54.2625 37.215 56.477 38.9538 56.477 42.1024C56.477 45.4625 53.9014 47.3422 49.2314 47.3422H43.1892V37.215ZM43.1892 62.5214V51.3604H50.3145C55.4178 51.3604 58.0658 53.24 58.0658 56.9057C58.0658 60.5711 55.4902 62.5214 50.6275 62.5214H43.1892Z" stroke="white" stroke-width="0.15625"/>
</g>
</g>
<defs>
<filter id="filter0_d_776_85" x="35.2189" y="30.9619" width="30.9375" height="39.0625" filterUnits="userSpaceOnUse" color-interpolation-filters="sRGB">
<feFlood flood-opacity="0" result="BackgroundImageFix"/>
<feColorMatrix in="SourceAlpha" type="matrix" values="0 0 0 0 0 0 0 0 0 0 0 0 0 0 0 0 0 0 127 0" result="hardAlpha"/>
<feOffset dy="0.625"/>
<feGaussianBlur stdDeviation="1.25"/>
<feColorMatrix type="matrix" values="0 0 0 0 0 0 0 0 0 0 0 0 0 0 0 0 0 0 0.15 0"/>
<feBlend mode="normal" in2="BackgroundImageFix" result="effect1_dropShadow_776_85"/>
<feBlend mode="normal" in="SourceGraphic" in2="effect1_dropShadow_776_85" result="shape"/>
</filter>
<linearGradient id="paint0_linear_776_85" x1="21.8873" y1="19.6872" x2="91.7937" y2="75.1789" gradientUnits="userSpaceOnUse">
<stop stop-color="#9013FE"/>
<stop offset="1" stop-color="#6610F2"/>
</linearGradient>
<linearGradient id="paint1_linear_776_85" x1="40.2356" y1="35.1468" x2="55.8616" y2="61.5736" gradientUnits="userSpaceOnUse">
<stop stop-color="white"/>
<stop offset="1" stop-color="#F1E5FC"/>
</linearGradient>
<clipPath id="clip0_776_85">
<rect width="80" height="63.75" fill="white" transform="translate(10 18)"/>
</clipPath>
</defs>
</svg>
