<svg width="100" height="100" viewBox="0 0 100 100" fill="none" xmlns="http://www.w3.org/2000/svg">
<rect width="100" height="100" rx="10" fill="white"/>
<g clip-path="url(#clip0_776_82)">
<path d="M36.3387 90.0002C43.6987 90.0002 49.672 84.0268 49.672 76.6668V63.3335H36.3387C28.9787 63.3335 23.0054 69.3068 23.0054 76.6668C23.0054 84.0268 28.9787 90.0002 36.3387 90.0002Z" fill="#0ACF83"/>
<path d="M23.0054 49.9998C23.0054 42.6398 28.9787 36.6665 36.3387 36.6665H49.672V63.3332H36.3387C28.9787 63.3332 23.0054 57.3598 23.0054 49.9998Z" fill="#A259FF"/>
<path d="M23.0054 23.3333C23.0054 15.9733 28.9787 10 36.3387 10H49.672V36.6667H36.3387C28.9787 36.6667 23.0054 30.6933 23.0054 23.3333Z" fill="#F24E1E"/>
<path d="M49.672 10H63.0053C70.3653 10 76.3387 15.9733 76.3387 23.3333C76.3387 30.6933 70.3653 36.6667 63.0053 36.6667H49.672V10Z" fill="#FF7262"/>
<path d="M76.3387 49.9998C76.3387 57.3598 70.3653 63.3332 63.0053 63.3332C55.6453 63.3332 49.672 57.3598 49.672 49.9998C49.672 42.6398 55.6453 36.6665 63.0053 36.6665C70.3653 36.6665 76.3387 42.6398 76.3387 49.9998Z" fill="#1ABCFE"/>
</g>
<defs>
<clipPath id="clip0_776_82">
<rect width="53.344" height="80" fill="white" transform="translate(23 10)"/>
</clipPath>
</defs>
</svg>
