<svg width="100" height="100" viewBox="0 0 100 100" fill="none" xmlns="http://www.w3.org/2000/svg">
<rect width="100" height="100" rx="10" fill="white"/>
<path fill-rule="evenodd" clip-rule="evenodd" d="M49.8808 12C27.8278 12 10 29.9592 10 52.1771C10 69.9371 21.4229 84.9706 37.2694 90.2914C39.2506 90.6914 39.9763 89.4269 39.9763 88.3633C39.9763 87.4318 39.911 84.2392 39.911 80.9127C28.8171 83.3078 26.5069 76.1233 26.5069 76.1233C24.7241 71.4669 22.0824 70.2702 22.0824 70.2702C18.4514 67.809 22.3469 67.809 22.3469 67.809C26.3747 68.0751 28.4882 71.9331 28.4882 71.9331C32.0531 78.0522 37.7976 76.3233 40.1086 75.2588C40.4384 72.6645 41.4955 70.8686 42.618 69.871C33.7698 68.9396 24.4604 65.4808 24.4604 50.0482C24.4604 45.658 26.0441 42.0661 28.5535 39.2727C28.1576 38.2751 26.7706 34.1502 28.9502 28.6294C28.9502 28.6294 32.3176 27.5649 39.9102 32.7535C43.1609 31.874 46.5133 31.4266 49.8808 31.4229C53.2482 31.4229 56.6808 31.889 59.8506 32.7535C67.4441 27.5649 70.8114 28.6294 70.8114 28.6294C72.991 34.1502 71.6033 38.2751 71.2073 39.2727C73.7829 42.0661 75.3012 45.658 75.3012 50.0482C75.3012 65.4808 65.9918 68.8727 57.0775 69.871C58.5306 71.1347 59.7845 73.529 59.7845 77.3208C59.7845 82.7086 59.7192 87.0326 59.7192 88.3624C59.7192 89.4269 60.4457 90.6914 62.4261 90.2922C78.2727 84.9698 89.6955 69.9371 89.6955 52.1771C89.7608 29.9592 71.8678 12 49.8808 12Z" fill="#24292F"/>
</svg>
