<svg width="100" height="100" viewBox="0 0 100 100" fill="none" xmlns="http://www.w3.org/2000/svg">
<rect width="100" height="100" rx="10" fill="white"/>
<g clip-path="url(#clip0_776_93)">
<path d="M49.6247 11.0005C46.9017 11.0132 44.3014 11.2454 42.0134 11.6503C35.2731 12.8411 34.0493 15.3335 34.0493 19.9299V26.0004H49.9774V28.0239H34.0493H28.0717C23.4426 28.0239 19.3891 30.8063 18.1213 36.0993C16.6588 42.1663 16.594 45.9523 18.1213 52.2872C19.2535 57.0027 21.9574 60.3626 26.5866 60.3626H32.063V53.0855C32.063 47.8282 36.6117 43.1908 42.0134 43.1908H57.9229C62.3515 43.1908 65.8869 39.5444 65.8869 35.0968V19.9299C65.8869 15.6133 62.2453 12.3707 57.9229 11.6503C55.1867 11.1948 52.3476 10.9879 49.6247 11.0005ZM41.0109 15.8829C42.6562 15.8829 43.9997 17.2484 43.9997 18.9274C43.9997 20.6005 42.6562 21.9534 41.0109 21.9534C39.3597 21.9534 38.0221 20.6005 38.0221 18.9274C38.0221 17.2484 39.3597 15.8829 41.0109 15.8829Z" fill="url(#paint0_linear_776_93)"/>
<path d="M67.8732 28.0239V35.0969C67.8732 40.5804 63.2242 45.1958 57.9228 45.1958H42.0133C37.6555 45.1958 34.0493 48.9255 34.0493 53.2897V68.4567C34.0493 72.7733 37.8029 75.3122 42.0133 76.5506C47.0553 78.0332 51.8902 78.3011 57.9228 76.5506C61.9328 75.3896 65.8868 73.0531 65.8868 68.4567V62.3862H49.9774V60.3627H65.8868H73.8509C78.48 60.3627 80.205 57.1338 81.8149 52.2873C83.4778 47.2979 83.4071 42.4998 81.8149 36.0993C80.6709 31.491 78.4859 28.0239 73.8509 28.0239H67.8732ZM58.9253 66.4332C60.5764 66.4332 61.9141 67.7861 61.9141 69.4591C61.9141 71.1381 60.5764 72.5037 58.9253 72.5037C57.28 72.5037 55.9365 71.1381 55.9365 69.4591C55.9365 67.7861 57.28 66.4332 58.9253 66.4332Z" fill="url(#paint1_linear_776_93)"/>
<path opacity="0.44382" d="M50.1581 91.0001C61.9466 91.0001 71.503 89.147 71.503 86.8611C71.503 84.5752 61.9466 82.7222 50.1581 82.7222C38.3697 82.7222 28.8132 84.5752 28.8132 86.8611C28.8132 89.147 38.3697 91.0001 50.1581 91.0001Z" fill="url(#paint2_radial_776_93)"/>
</g>
<defs>
<linearGradient id="paint0_linear_776_93" x1="17" y1="11" x2="53.7283" y2="42.2976" gradientUnits="userSpaceOnUse">
<stop stop-color="#5A9FD4"/>
<stop offset="1" stop-color="#306998"/>
</linearGradient>
<linearGradient id="paint1_linear_776_93" x1="58.5425" y1="68.9488" x2="45.3658" y2="50.4842" gradientUnits="userSpaceOnUse">
<stop stop-color="#FFD43B"/>
<stop offset="1" stop-color="#FFE873"/>
</linearGradient>
<radialGradient id="paint2_radial_776_93" cx="0" cy="0" r="1" gradientUnits="userSpaceOnUse" gradientTransform="translate(50.1581 86.8611) rotate(-90) scale(4.13896 18.1925)">
<stop stop-color="#B8B8B8" stop-opacity="0.498039"/>
<stop offset="1" stop-color="#7F7F7F" stop-opacity="0"/>
</radialGradient>
<clipPath id="clip0_776_93">
<rect width="66.0357" height="80" fill="white" transform="translate(17 11)"/>
</clipPath>
</defs>
</svg>
