<svg width="100" height="100" viewBox="0 0 100 100" fill="none" xmlns="http://www.w3.org/2000/svg">
<rect width="100" height="100" rx="10" fill="white"/>
<path d="M49.9004 57.6125C53.8286 57.6125 57.0131 54.4281 57.0131 50.4999C57.0131 46.5717 53.8286 43.3872 49.9004 43.3872C45.9722 43.3872 42.7877 46.5717 42.7877 50.4999C42.7877 54.4281 45.9722 57.6125 49.9004 57.6125Z" fill="#61DAFB"/>
<path d="M49.9004 65.0723C70.9786 65.0723 88.0659 58.5481 88.0659 50.5C88.0659 42.452 70.9786 35.9277 49.9004 35.9277C28.8221 35.9277 11.7348 42.452 11.7348 50.5C11.7348 58.5481 28.8221 65.0723 49.9004 65.0723Z" stroke="#61DAFB" stroke-width="3.4696"/>
<path d="M37.2804 57.7863C47.8196 76.0406 62.0134 87.5765 68.9832 83.5524C75.953 79.5284 73.0595 61.4683 62.5204 43.214C51.9813 24.9597 37.7875 13.4237 30.8176 17.4478C23.8478 21.4718 26.7413 39.532 37.2804 57.7863Z" stroke="#61DAFB" stroke-width="3.4696"/>
<path d="M37.2805 43.2144C26.7413 61.4687 23.8479 79.5289 30.8177 83.5529C37.7875 87.5769 51.9813 76.041 62.5204 57.7867C73.0596 39.5324 75.9531 21.4723 68.9832 17.4482C62.0134 13.4242 47.8196 24.9601 37.2805 43.2144Z" stroke="#61DAFB" stroke-width="3.4696"/>
</svg>
