<svg width="100" height="100" viewBox="0 0 100 100" fill="none" xmlns="http://www.w3.org/2000/svg">
<rect width="100" height="100" rx="10" fill="white"/>
<path d="M80.4846 14.6536C80.4895 14.7345 80.492 14.8156 80.492 14.8966V84.6035C80.492 86.7555 78.7955 88.5 76.7027 88.5C76.646 88.5 76.5894 88.4987 76.5327 88.4961L25.954 86.1601C23.9841 86.0692 22.4114 84.4399 22.3374 82.4137L20.0027 18.4435C19.9256 16.3308 21.5009 14.5403 23.5529 14.4084L65.0294 11.7425L64.6688 20.526C64.6647 20.6272 64.6864 20.7272 64.731 20.8163L64.7832 20.9014C64.9718 21.1572 65.3264 21.2072 65.5751 21.0132L68.8929 18.4252L71.6951 20.6952C71.8001 20.7803 71.9311 20.8243 72.0647 20.8195C72.3766 20.8083 72.6207 20.5392 72.6098 20.2184L72.2962 11.275L76.4664 11.0077C78.555 10.8735 80.3541 12.5058 80.4846 14.6536Z" fill="#FF4785"/>
<mask id="mask0_777_61" style="mask-type:luminance" maskUnits="userSpaceOnUse" x="20" y="11" width="61" height="78">
<path d="M22.3374 82.4137L20.0027 18.4435C19.9256 16.3308 21.5009 14.5403 23.5529 14.4084L76.4664 11.0077C78.555 10.8735 80.3541 12.5058 80.4846 14.6536C80.4895 14.7345 80.492 14.8156 80.492 14.8966V84.6035C80.492 86.7555 78.7955 88.5 76.7027 88.5C76.646 88.5 76.5894 88.4987 76.5327 88.4961L25.954 86.1601C23.9841 86.0692 22.4114 84.4399 22.3374 82.4137Z" fill="white"/>
</mask>
<g mask="url(#mask0_777_61)">
<path d="M55.3755 40.2106C55.3755 41.7266 65.3057 41 66.6388 39.9351C66.6388 29.6118 61.252 24.187 51.3878 24.187C41.5237 24.187 35.997 29.6962 35.997 37.9599C35.997 52.3526 54.8858 52.6281 54.8858 60.4787C54.8858 62.6823 53.8364 63.9908 51.5278 63.9908C48.5195 63.9908 47.3303 62.411 47.4702 57.0395C47.4702 55.8742 35.997 55.511 35.6472 57.0395C34.7565 70.0564 42.643 73.811 51.6677 73.811C60.4125 73.811 67.2684 69.0179 67.2684 60.3409C67.2684 44.9153 48.0998 45.3284 48.0998 37.6845C48.0998 34.5856 50.3385 34.1724 51.6677 34.1724C53.0668 34.1724 55.5853 34.426 55.3755 40.2106Z" fill="white"/>
</g>
<mask id="mask1_777_61" style="mask-type:luminance" maskUnits="userSpaceOnUse" x="20" y="11" width="61" height="78">
<path d="M22.3374 82.4137L20.0027 18.4435C19.9256 16.3308 21.5009 14.5403 23.5529 14.4084L76.4664 11.0077C78.555 10.8735 80.3541 12.5058 80.4846 14.6536C80.4895 14.7345 80.492 14.8156 80.492 14.8966V84.6035C80.492 86.7555 78.7955 88.5 76.7027 88.5C76.646 88.5 76.5894 88.4987 76.5327 88.4961L25.954 86.1601C23.9841 86.0692 22.4114 84.4399 22.3374 82.4137Z" fill="white"/>
</mask>
<g mask="url(#mask1_777_61)">
<path d="M64.6688 20.5261L65.0303 11.7396L72.2969 11.2729L72.6099 20.2184C72.6208 20.5393 72.3767 20.8084 72.0647 20.8196C71.9311 20.8244 71.8002 20.7804 71.6952 20.6953L68.893 18.4253L65.5752 21.0133C65.3265 21.2073 64.9719 21.1573 64.7832 20.9015C64.7038 20.7938 64.6634 20.6611 64.6688 20.5261Z" fill="white"/>
</g>
</svg>
